:SAMPLES-PER-SECOND 30
:FULLY-SPECIFIED
:DEGREES
108
root  16.8624 38.3675 -7.33933 157.004 -88.6855 -154.943
RightUpLeg  -26.1399 -10.6814 -6.99924
RightLeg  28.5872 -0.145316 -0.318703
RightFoot  -15.1491 0.269654 11.1769
RightToes  0.00048216 0.542163 -0.142577
Spine  43.7873 -0.695858 -1.47403
Spine1  -3.43129 -0.491589 -5.04257
HEad  -39.0187 9.29581 -7.86341
LeftShoulder1  10.4405 -15.8378 -47.1048
LeftArm  -9.41863 7.60349 -22.2545
LeftForeArm  45.215 -49.1812 -9.60218
LeftHand  -0.25398 0.0180481 5.50724
RightShoulder  7.891 12.369 43.3403
RightArm  1.63637 0.663034 36.8122
RightForeArm  35.8434 56.5009 13.8919
RightHand  -0.987152 3.54528 -13.0833
LeftUpLeg  -27.4957 9.98518 5.85664
LeftLeg  31.6623 3.61624 2.7602
LeftFoot  -13.68 -0.0781458 -7.81385
LeftToes  1.06241e-005 4.65855e-005 -8.18508e-006
109
root  16.3211 38.4038 -7.53196 144.919 -88.633 -145.248
RightUpLeg  -22.7795 -10.1798 -7.18424
RightLeg  29.0828 -0.564825 -0.574
RightFoot  -15.7551 0.339346 11.548
RightToes  0.00048216 0.542163 -0.142577
Spine  41.4108 -0.719853 -1.3849
Spine1  -3.2132 -0.304494 -5.83967
HEad  -34.245 9.84197 -7.66896
LeftShoulder1  10.4549 -15.8356 -47.1768
LeftArm  -8.35913 7.52254 -21.5414
LeftForeArm  43.2095 -43.3673 -7.68647
LeftHand  -0.25398 0.0180481 5.50724
RightShoulder  7.89715 12.3919 43.3097
RightArm  3.58125 -0.348474 37.3518
RightForeArm  33.0972 53.2934 12.3718
RightHand  -1.11854 4.12806 -13.9163
LeftUpLeg  -24.1871 10.4669 6.95198
LeftLeg  32.1224 2.90695 2.32624
LeftFoot  -14.289 -0.123559 -8.13254
LeftToes  1.06241e-005 4.65855e-005 -8.18508e-006
110
root  15.7382 38.4262 -7.69453 123.506 -89.0321 -125.156
RightUpLeg  -20.5061 -10.6736 -7.59098
RightLeg  29.5991 -0.335569 -0.441656
RightFoot  -15.7623 0.361294 12.1221
RightToes  0.00048216 0.542163 -0.142577
Spine  37.4982 -0.329658 -2.52109
Spine1  -2.47747 -0.425716 -4.54611
HEad  -29.3537 10.48 -8.44827
LeftShoulder1  10.3927 -15.7795 -47.0294
LeftArm  -8.40379 8.10178 -21.9716
LeftForeArm  40.7623 -37.4413 -6.11039
LeftHand  -0.25398 0.0180481 5.50724
RightShoulder  7.85108 12.3825 43.0688
RightArm  6.92141 -0.295557 36.9063
RightForeArm  31.1927 49.96 10.9568
RightHand  -1.21766 4.74685 -14.2409
LeftUpLeg  -21.9695 10.2262 7.47605
LeftLeg  32.1436 2.38237 1.97236
LeftFoot  -13.5851 -0.07869 -8.12479
LeftToes  1.06241e-005 4.65855e-005 -8.18508e-006
111
root  15.1344 38.4361 -7.81415 115.095 -89.8546 -117.013
RightUpLeg  -19.4239 -11.6456 -8.28569
RightLeg  30.0419 0.291584 -0.0562479
RightFoot  -14.456 0.237996 12.3132
RightToes  0.00048216 0.542163 -0.142577
Spine  32.2648 0.230688 -4.76165
Spine1  -1.32616 -0.831747 -1.71123
HEad  -24.7537 11.5167 -9.4067
LeftShoulder1  10.2565 -15.6108 -46.8183
LeftArm  -8.72725 9.1375 -22.9428
LeftForeArm  37.6937 -31.9931 -4.91483
LeftHand  -0.25398 0.0180481 5.50724
RightShoulder  7.78544 12.2824 42.9748
RightArm  10.6532 0.277611 35.6129
RightForeArm  30.9347 47.3866 9.9174
RightHand  -1.18514 4.91589 -13.6523
LeftUpLeg  -20.9134 9.67731 7.24536
LeftLeg  31.8334 2.04944 1.72779
LeftFoot  -11.5705 0.0530989 -7.38007
LeftToes  1.06241e-005 4.65855e-005 -8.18508e-006
112
root  14.5375 38.4754 -7.87717 16.5522 -89.2736 -18.9349
RightUpLeg  -18.0483 -12.4044 -8.68588
RightLeg  30.0475 0.752467 0.230721
RightFoot  -12.2392 0.0082711 11.3318
RightToes  0.00048216 0.542163 -0.142577
Spine  27.5921 0.548478 -6.56898
Spine1  -0.151399 -1.18626 0.914061
HEad  -20.909 12.6712 -9.87526
LeftShoulder1  10.1283 -15.4051 -46.7345
LeftArm  -8.37694 10.2042 -23.6519
LeftForeArm  34.1831 -27.7293 -4.13508
LeftHand  -0.25398 0.0180481 5.50724
RightShoulder  7.71305 12.0861 43.1203
RightArm  13.1727 0.670431 34.0547
RightForeArm  31.9003 45.9973 9.32738
RightHand  -1.0866 4.78212 -12.7147
LeftUpLeg  -19.6074 9.14601 7.2463
LeftLeg  31.5081 1.89918 1.60962
LeftFoot  -9.84016 0.14291 -6.33978
LeftToes  1.06241e-005 4.65855e-005 -8.18508e-006
113
root  13.9651 38.5924 -7.89564 25.544 -88.9612 -29.434
RightUpLeg  -15.2454 -12.4456 -8.6249
RightLeg  29.3213 0.732129 0.208406
RightFoot  -10.2208 -0.16077 9.28237
RightToes  0.00048216 0.542163 -0.142577
Spine  24.5295 0.747011 -7.15271
Spine1  1.16434 -1.16338 2.36049
HEad  -18.0578 13.4271 -9.97874
LeftShoulder1  10.0865 -15.255 -46.9187
LeftArm  -7.20175 10.9049 -23.7099
LeftForeArm  31.3078 -24.9966 -3.7006
LeftHand  -0.25398 0.0180481 5.50724
RightShoulder  7.64239 11.8772 43.317
RightArm  13.5955 0.65392 32.716
RightForeArm  32.4302 45.3668 9.06464
RightHand  -1.02641 4.65941 -12.1737
LeftUpLeg  -16.8722 8.70409 8.0124
LeftLeg  30.9976 1.94957 1.61598
LeftFoot  -9.38138 0.154716 -5.73344
LeftToes  1.06241e-005 4.65855e-005 -8.18508e-006
114
root  13.4203 38.7549 -7.88654 46.0613 -88.6543 -51.9238
RightUpLeg  -11.6916 -11.8713 -8.43113
RightLeg  28.1421 0.32801 -0.0431983
RightFoot  -9.12177 -0.205399 7.31948
RightToes  0.00048216 0.542163 -0.142577
Spine  22.15 1.00452 -7.10326
Spine1  2.90199 -0.870972 3.13286
HEad  -15.9754 13.6275 -10.0004
LeftShoulder1  10.1096 -15.1462 -47.3092
LeftArm  -5.82926 11.2081 -23.2586
LeftForeArm  30.1901 -23.5427 -3.47662
LeftHand  -0.25398 0.0180481 5.50724
RightShoulder  7.59628 11.7305 43.4793
RightArm  12.1337 0.319141 31.7463
RightForeArm  31.7212 44.8712 8.93894
RightHand  -1.01227 4.59955 -12.0784
LeftUpLeg  -13.3797 8.25447 9.0355
LeftLeg  30.1957 2.14937 1.70056
LeftFoot  -9.57367 0.143272 -5.5674
LeftToes  1.06241e-005 4.65855e-005 -8.18508e-006
115
root  12.9088 38.912 -7.86199 51.57 -88.2976 -58.8449
RightUpLeg  -8.65558 -11.2872 -8.34173
RightLeg  26.8583 -0.175155 -0.327527
RightFoot  -8.69169 -0.20576 6.31825
RightToes  0.00048216 0.542163 -0.142577
Spine  19.4479 1.18877 -7.09183
Spine1  4.68896 -0.611789 3.70952
HEad  -14.1566 13.4974 -9.68922
LeftShoulder1  10.082 -14.9951 -47.5704
LeftArm  -4.79739 11.4628 -22.6876
LeftForeArm  30.5634 -22.8546 -3.3956
LeftHand  -0.25398 0.0180481 5.50724
RightShoulder  7.58327 11.6383 43.6802
RightArm  9.52625 -0.404914 31.1586
RightForeArm  30.5827 44.3623 8.83979
RightHand  -1.01588 4.5682 -12.1555
LeftUpLeg  -10.5505 7.68468 9.68975
LeftLeg  29.2677 2.41237 1.80889
LeftFoot  -9.49044 0.143765 -5.38324
LeftToes  1.06241e-005 4.65855e-005 -8.18508e-006
116
root  12.4449 39.0501 -7.82834 49.4562 -87.8589 -57.4696
RightUpLeg  -6.34622 -11.1625 -8.27148
RightLeg  25.5275 -0.501823 -0.489849
RightFoot  -8.37817 -0.213588 6.04677
RightToes  0.00048216 0.542163 -0.142577
Spine  16.7384 1.19211 -6.95942
Spine1  5.84153 -0.403071 3.78125
HEad  -12.2527 13.2002 -8.69264
LeftShoulder1  9.92997 -14.7799 -47.401
LeftArm  -4.0664 11.9688 -22.3005
LeftForeArm  31.0656 -22.6847 -3.37158
LeftHand  -0.25398 0.0180481 5.50724
RightShoulder  7.56802 11.528 43.925
RightArm  6.59649 -1.64394 30.9378
RightForeArm  29.7567 44.0945 8.804
RightHand  -1.03454 4.57195 -12.366
LeftUpLeg  -8.67868 6.97833 10.0706
LeftLeg  28.4577 2.70174 1.92983
LeftFoot  -9.25637 0.149615 -5.16886
LeftToes  1.06241e-005 4.65855e-005 -8.18508e-006
117
root  12.0418 39.1714 -7.79136 49.4694 -87.4243 -58.0328
RightUpLeg  -4.35445 -11.3725 -8.1746
RightLeg  24.1993 -0.542908 -0.492348
RightFoot  -8.0548 -0.22457 5.91211
RightToes  0.00048216 0.542163 -0.142577
Spine  14.6336 1.20492 -6.51849
Spine1  6.29789 -0.0319534 3.17558
HEad  -10.3205 12.6494 -7.26818
LeftShoulder1  9.7247 -14.561 -46.9756
LeftArm  -3.71585 12.6248 -22.047
LeftForeArm  31.1543 -23.0141 -3.38475
LeftHand  -0.25398 0.0180481 5.50724
RightShoulder  7.49531 11.3386 44.0649
RightArm  4.0424 -3.16139 31.002
RightForeArm  28.9792 44.192 8.89103
RightHand  -1.06975 4.60545 -12.7316
LeftUpLeg  -7.11775 6.34744 10.4622
LeftLeg  27.7566 2.97357 2.03903
LeftFoot  -9.35838 0.14629 -5.21535
LeftToes  1.06241e-005 4.65855e-005 -8.18508e-006
